<?xml version="1.0" encoding="utf-8"?>
<!-- Generator: Adobe Illustrator 16.0.0, SVG Export Plug-In . SVG Version: 6.00 Build 0)  -->
<!DOCTYPE svg PUBLIC "-//W3C//DTD SVG 1.1//EN" "http://www.w3.org/Graphics/SVG/1.1/DTD/svg11.dtd">
<svg version="1.1" id="Layer_1" xmlns="http://www.w3.org/2000/svg" xmlns:xlink="http://www.w3.org/1999/xlink" x="0px" y="0px"
	 width="400px" height="200px" viewBox="0 0 400 200" enable-background="new 0 0 400 200" xml:space="preserve">
<g display="none">
	<polygon display="inline" fill="#FFFFFF" points="207,16.581 407,16.581 407,183.071 207,183.071 	"/>
	<path display="inline" fill="#E13361" d="M250.508,57.755l88.857-23.249l15.59,57.67l34.131-8.824l-32.741,42.933l-0.337,0.094
		c0,0-2.982,0.813-3.929,0.267c-0.948-0.544,1.079-4.33,2.161-6.902c1.09-2.582,3.116-8.807,4.877-12.336
		c1.767-3.519,4.34-6.361,5.019-6.635c0.671-0.267,1.082-2.706,0.813-3.792c-0.277-1.085,0-2.305-1.09-2.305
		c-1.079,0-1.892,3.252-3.384,5.15c-1.492,1.892-4.877,8.314-7.718,14.188c-2.85,5.875-8.438,12.619-11.208,15.381
		c-2.984,2.361-0.583-2.202-0.314-3.562c0.278-1.354,2.039-5.144,2.039-5.144s2.438-2.715-0.682-1.759
		c-3.116,0.946-5.955,5.546-5.955,5.546s-7.729,9.62-10.433,11.522c-2.707,1.894-2.037-1.09-1.494-4.064
		c0.547-2.984,3.932-6.503,3.932-6.503l1.357-0.545c0,0-0.813,2.984-0.144,2.842c0.678-0.136,1.492-1.35,1.626-2.438
		c0.143-1.082,0-5.547-0.813-5.011c-0.813,0.543-5.145,4.474-6.502,6.1c-1.349,1.626-6.225,7.717-7.985,10.567
		c-1.769,2.839-0.543-1.492-0.543-1.492s0.68-2.438,0.813-3.52c0.131-1.091-1.359-0.545-1.359-0.545l-2.025,2.028
		c0,0-0.413,0.41-0.413,2.036c0,1.625-2.025,3.93-4.063,5.144c-2.032,1.225-1.214-1.079-1.214-1.079s0.679-2.85,2.704-6.235
		c2.038-3.386,4.198-3.653,5.424-4.2c1.214-0.542,0.678-1.354,0.267-2.024c-0.401-0.68-1.745-0.191-2.17,0.134
		c-0.929,0.728-16.005,13.333-16.657,15.577c-0.654,2.241,1.486,0.544,1.486,0.544l5.962-6.488l0.272-0.292l-0.139,1.492
		c0,0-1.76,3.118-1.354,5.288c0.446,1.746,1.762,1.363,2.714,1.306c0.945-0.142,2.839-2.797,4.063-3.744
		c1.214-0.954,1.356,0.136,1.757,0.947c0.413,0.813,2.173-0.276,2.173-0.276s4.064-5.547,5.011-6.772
		c0.945-1.214,2.17-1.214,2.17-1.214s-0.543,1.626,0.813,3.786c1.348,2.173,3.786,0.546,5.277-0.399
		c1.494-0.948,6.236-6.914,7.315-8.405c1.081-1.483,2.571-1.761,2.571-1.761s-0.811,4.742-0.534,5.967
		c0.27,1.213,2.297,1.482,4.734-0.813c2.438-2.304,7.557-9.819,7.557-9.819s-1.323,3.718-0.912,6.568
		c0.401,2.839,2.829,2.019,3.884,1.693c0.845-0.559,1.804-1.07,2.598-1.488l-27.646,36.253l-37.753-16.525
		c1.214-3.62,5.398-16.093,5.556-16.552c4.15-1.304,8.181-2.572,8.181-2.572c0.397-0.968,0.842-2.347,1.74-3.961
		c0.896-1.618-1.259-1.255-1.259-1.255s-3.671,2.7-5.287,3.242c-2.232,1.156-1.355-1.27-1.355-1.27s3.23-6.647,4.31-9.337
		c1.073-2.694,4.129-2.694,6.643-3.772c2.519-1.075,19.576-6.463,22.447-7.54c2.867-1.079,2.336-5.391,2.336-5.391
		s-3.06,1.62-5.387,2.333c-2.34,0.721-18.144,6.822-19.935,7.726c-1.796,0.893-0.896-0.722-0.896-1.976
		c0-1.256-0.899-0.723-0.899-0.723s-2.156,1.083-3.592,1.444c-1.436,0.351-2.334,2.868-2.334,2.868s-14.188,6.463-17.237,10.055
		c-3.056,3.595,1.796,1.977,1.796,1.977s13.646-8.076,12.568-6.108c-1.079,1.976-5.745,12.934-5.745,12.934
		s-4.491,3.051-6.105,4.306c-1.615,1.263-0.897,3.771-0.897,3.771s6.462-5.209,5.744-3.593c-0.6,1.349-2.694,9.427-3.372,12.085
		l-54.007-23.652l32.954-8.819L250.508,57.755L250.508,57.755z M318.718,122.703c0,0,3.629-4.315,4.141-5.702
		c0.518-1.377,2.764-1.549,2.595,0c-0.168,1.562-3.8,4.674-3.8,4.674s-1.729,2.071-2.591,2.071
		C318.197,123.745,318.718,122.703,318.718,122.703L318.718,122.703z M343.866,115.519c0,0-1.14,0.163-0.976-1.789
		c0.162-1.951,0.649-1.625,1.624-2.438c0.976-0.813,1.791-1.951,1.791-0.325s-0.163,2.438-0.976,3.414
		C344.516,115.356,343.866,115.519,343.866,115.519L343.866,115.519z"/>
	
		<path display="inline" fill="#FFFFFF" stroke="#FFFFFF" stroke-width="11.5681" stroke-linecap="round" stroke-linejoin="round" stroke-miterlimit="2.6131" d="
		M224.914,87.916l19.861-5.15c3.609-0.937,6.644-1.377,9.099-1.329c2.583-0.04,4.73,0.35,6.449,1.176
		c1.717,0.824,3.009,2.094,3.875,3.812c0.357,0.712,0.645,1.537,0.851,2.467c1.379,6.874-3.533,11.765-14.745,14.669l-6.967,1.811
		l2.245,9.495l-13.584,3.529L224.914,87.916L224.914,87.916z M304.168,68.288h0.114c0.44-0.303,0.896-0.601,1.372-0.883
		c2.5-1.502,5.491-2.705,8.986-3.61c1.879-0.488,3.534-0.821,4.963-0.998c1.439-0.173,2.999-0.214,4.7-0.116
		c2.935,0.132,5.483,0.81,7.653,2.022c2.177,1.214,3.817,2.918,4.921,5.111l0.085,0.158l-7.347,1.907v3.447l8.593-2.225
		l3.856,16.837l-8.639,2.237l-1.282-2.802c-0.714,0.965-1.561,1.845-2.528,2.642v0.055h-0.074c-2.294,1.874-5.267,3.289-8.94,4.237
		c-5.291,1.373-9.952,1.404-13.98,0.087c-4.029-1.317-6.882-3.638-8.556-6.967l-0.844-1.801l-0.374-1.652
		c-1.109-4.791-0.187-9.196,2.779-13.223c1.205-1.641,2.716-3.103,4.541-4.384V68.288L304.168,68.288z M240.187,91.488l1.467,6.788
		l5.875-1.521c1.688-0.439,2.952-1.18,3.796-2.219c0.843-1.039,0.987-2.116,0.427-3.223c-0.839-1.667-3.351-1.956-7.535-0.874
		L240.187,91.488L240.187,91.488z M268.785,76.537l13.876-3.594l21.94,26.622l-13.53,3.51l-2.609-3.624l-13.588,3.526l-0.56,4.439
		l-13.242,3.438L268.785,76.537L268.785,76.537z M276.024,95.952l8.579-2.228l-6.822-9.791L276.024,95.952L276.024,95.952z
		 M358.461,52.432c6.102-1.585,11.213-1.654,15.317-0.207c1.952,0.686,3.724,1.661,5.321,2.924c0.738,0.612,1.405,1.285,1.983,2.015
		c0.593,0.729,1.117,1.568,1.601,2.522l0.76,1.503l0.384,1.289c0.775,2.822,0.638,5.708-0.415,8.671
		c-1.051,2.958-3.094,5.64-6.132,8.045c-3.052,2.4-6.851,4.195-11.419,5.381c-6.18,1.602-11.343,1.664-15.5,0.184
		c-4.147-1.477-7.061-3.881-8.742-7.21l-0.39-1.155l-0.485-1.352l-0.399-1.192c-0.591-2.987-0.393-5.81,0.612-8.474
		c1.001-2.665,3.021-5.189,6.048-7.575C350.029,55.415,353.853,53.625,358.461,52.432L358.461,52.432z M360.076,59.901
		c-5.913,1.532-7.621,5.992-5.112,13.382c1.854,3.67,4.906,4.958,9.17,3.851c3.377-0.875,5.42-2.668,6.142-5.381
		c0.713-2.708,0.413-5.375-0.904-7.987c-0.859-1.718-2.071-2.936-3.623-3.652C364.187,59.393,362.3,59.323,360.076,59.901
		L360.076,59.901z"/>
	<path display="inline" fill="#516286" stroke="#516286" stroke-width="2.0001" stroke-miterlimit="2.6131" d="M225.372,87.916
		l19.867-5.15c3.604-0.937,6.639-1.377,9.095-1.329c2.581-0.04,4.734,0.35,6.45,1.176c1.716,0.824,3.008,2.094,3.874,3.812
		c0.356,0.712,0.644,1.537,0.85,2.467c1.379,6.874-3.533,11.765-14.74,14.669l-6.972,1.811l2.251,9.495l-13.589,3.529
		L225.372,87.916L225.372,87.916z M240.646,91.488l1.468,6.788l5.875-1.521c1.688-0.439,2.955-1.18,3.796-2.219
		c0.845-1.039,0.984-2.116,0.427-3.223c-0.84-1.667-3.351-1.956-7.532-0.874L240.646,91.488L240.646,91.488z M269.246,76.537
		l13.88-3.594l21.938,26.622l-13.534,3.51l-2.607-3.624l-13.586,3.526l-0.562,4.439l-13.242,3.438L269.246,76.537L269.246,76.537z
		 M276.483,95.952l8.582-2.228l-6.819-9.791L276.483,95.952L276.483,95.952z M321.632,84.51l-1.558-6.587l18.593-4.819l3.86,16.836
		l-8.634,2.237l-1.287-2.802c-2.437,3.257-6.283,5.572-11.543,6.934c-5.298,1.373-9.954,1.404-13.984,0.087
		c-4.024-1.317-6.877-3.638-8.557-6.967l-0.839-1.8l-0.378-1.652c-1.109-4.79-0.183-9.196,2.778-13.223
		c1.519-2.069,3.531-3.852,6.03-5.35c2.496-1.501,5.499-2.705,8.986-3.61c1.884-0.489,3.533-0.821,4.971-0.998
		c1.429-0.173,2.989-0.215,4.692-0.116c2.934,0.133,5.483,0.81,7.662,2.023c2.166,1.214,3.808,2.918,4.91,5.111l0.086,0.158
		l-12.902,3.345c-1.635-2.296-4.27-2.968-7.916-2.023c-5.987,1.553-7.632,6.087-4.937,13.605c1.772,3.512,5.017,4.657,9.739,3.432
		c1.457-0.377,2.831-1.081,4.108-2.119c1.279-1.032,1.963-2.115,2.053-3.242L321.632,84.51L321.632,84.51z M358.922,52.432
		c6.1-1.585,11.211-1.654,15.316-0.207c1.952,0.686,3.733,1.661,5.321,2.924c0.738,0.612,1.401,1.285,1.988,2.015
		c0.585,0.729,1.119,1.568,1.6,2.522l0.755,1.503l0.392,1.289c0.768,2.822,0.629,5.708-0.422,8.671
		c-1.043,2.958-3.093,5.64-6.133,8.045c-3.04,2.4-6.852,4.195-11.417,5.381c-6.181,1.602-11.344,1.664-15.502,0.184
		c-4.146-1.477-7.06-3.881-8.741-7.21l-0.38-1.155l-0.487-1.352l-0.411-1.192c-0.586-2.987-0.391-5.81,0.612-8.474
		c1.005-2.665,3.024-5.189,6.051-7.575C350.491,55.415,354.313,53.625,358.922,52.432L358.922,52.432z M360.535,59.901
		c-5.914,1.532-7.613,5.992-5.111,13.382c1.853,3.67,4.907,4.958,9.17,3.851c3.375-0.875,5.42-2.668,6.142-5.381
		c0.722-2.708,0.413-5.375-0.895-7.987c-0.871-1.718-2.085-2.936-3.635-3.652C364.646,59.392,362.758,59.323,360.535,59.901
		L360.535,59.901z"/>
</g>
<g>
	<path fill="#273991" d="M123.174,76.27c-14.256,0-24.316,7.621-24.385,18.478c-0.11,8.046,7.149,12.526,12.625,15.183
		c5.644,2.754,7.531,4.488,7.505,6.973c-0.067,3.75-4.514,5.422-8.659,5.422c-5.767,0-8.823-0.863-13.567-2.91l-1.873-0.918
		l-2.016,12.553c3.381,1.57,9.591,2.881,16.102,2.969c15.161,0,25.009-7.504,25.112-19.1c0.076-6.381-3.779-11.205-12.129-15.207
		c-5.035-2.582-8.132-4.311-8.107-6.939c0-2.296,2.618-4.796,8.275-4.796c4.742-0.097,8.148,1.011,10.799,2.132l1.313,0.658
		l1.951-12.116c-2.859-1.129-7.369-2.379-12.948-2.379V76.27z M78.345,77.255L69.3,133.173h14.442l9.052-55.918H78.348
		L78.345,77.255z M57.193,77.32l-14.114,38.126l-1.511-7.762c-3.523-9.507-11.159-19.445-20.014-23.499L34.49,133.11l15.272-0.01
		l22.712-55.78H57.193L57.193,77.32z M162.019,77.326c-3.477,0-6.065,0.999-7.597,4.632l-21.417,51.238h15.167
		c0,0,2.456-6.898,3.014-8.395c1.687,0,16.406,0,18.517,0c0.421,1.957,1.734,8.395,1.734,8.395h13.412L173.16,77.326H162.019
		L162.019,77.326z M163.016,92.386l0.966,4.829c0,0,2.771,13.347,3.355,16.13h-11.994c1.22-3.207,5.757-15.61,5.757-15.61
		C161.023,97.88,162.287,94.483,163.016,92.386L163.016,92.386z"/>
	<path fill="#FBAA19" d="M29.966,77.284H6.659l-0.126,0.969c18.098,4.622,30.041,15.986,35.035,29.434l-5.06-25.682
		C35.613,78.475,33.095,77.396,29.966,77.284"/>
</g>
<path d="M256.062,154.931c-0.475-0.49-0.987-0.844-1.671-1.078c-0.607-0.256-1.295-0.389-2.052-0.389
	c-0.405,0-0.828,0.047-1.269,0.131c-0.442,0.002-0.864,0.146-1.234,0.359c-0.4,0.133-0.802,0.391-1.174,0.713
	c-0.371,0.293-0.7,0.686-1.014,1.172c-0.435-0.746-1.033-1.348-1.79-1.773c-0.761-0.426-1.637-0.602-2.608-0.602
	c-0.305,0-0.646,0.045-0.985,0.111c-0.352,0.021-0.691,0.113-1.035,0.297c-0.37,0.107-0.739,0.336-1.041,0.561
	c-0.306,0.295-0.569,0.617-0.825,1.004v-1.627h-2.768v13.184h2.768v-7.342c0-0.516,0.081-1.045,0.302-1.494
	c0.138-0.438,0.425-0.813,0.701-1.082c0.274-0.273,0.628-0.486,1.022-0.645c0.413-0.191,0.848-0.207,1.32-0.207
	c0.901,0,1.624,0.287,2.178,0.852c0.465,0.645,0.781,1.439,0.781,2.543v7.375h2.751v-7.342c0-0.516,0.112-1.045,0.291-1.494
	c0.165-0.438,0.38-0.813,0.741-1.082c0.281-0.273,0.617-0.486,1.028-0.645c0.404-0.191,0.842-0.207,1.229-0.207
	c0.978,0,1.716,0.287,2.237,0.852c0.492,0.645,0.748,1.439,0.748,2.543v7.375h2.812v-8.289c0-0.77-0.156-1.467-0.383-2.115
	C256.896,155.913,256.546,155.399,256.062,154.931"/>
<path d="M270.786,155.419c-0.428-0.631-1.039-1.074-1.703-1.439c-0.661-0.381-1.486-0.516-2.424-0.516
	c-0.933,0-1.816,0.133-2.605,0.516c-0.748,0.363-1.496,0.795-2.082,1.457c-0.557,0.584-1.049,1.305-1.376,2.188
	c-0.337,0.844-0.538,1.746-0.538,2.734c0,1.066,0.201,1.953,0.538,2.818c0.327,0.877,0.819,1.598,1.376,2.184
	c0.586,0.588,1.334,1.09,2.082,1.426c0.789,0.34,1.673,0.549,2.605,0.549c0.938,0,1.763-0.211,2.424-0.559
	c0.664-0.34,1.275-0.828,1.703-1.373v1.59h2.902V153.81h-2.902V155.419z M270.705,162.075c-0.232,0.498-0.483,0.926-0.819,1.303
	c-0.354,0.377-0.773,0.691-1.283,0.916c-0.447,0.18-1.013,0.303-1.573,0.303c-0.673,0-1.192-0.131-1.713-0.316
	c-0.513-0.211-0.901-0.568-1.261-0.951c-0.337-0.373-0.576-0.758-0.75-1.299c-0.189-0.547-0.304-1.045-0.304-1.672
	c0-0.545,0.114-1.123,0.304-1.59c0.174-0.539,0.413-0.998,0.75-1.381c0.359-0.385,0.748-0.67,1.261-0.867
	c0.521-0.27,1.04-0.324,1.713-0.324c0.561,0,1.126,0.049,1.573,0.313c0.51,0.178,0.93,0.463,1.283,0.83
	c0.336,0.381,0.587,0.838,0.819,1.385c0.147,0.49,0.27,1.066,0.27,1.635C270.975,161.009,270.853,161.528,270.705,162.075"/>
<path d="M286.856,160.331c-0.754-0.604-1.874-1.029-3.354-1.203l-1.358-0.252c-0.289-0.043-0.555-0.043-0.88-0.111
	c-0.24-0.076-0.443-0.168-0.677-0.297c-0.151-0.037-0.336-0.193-0.463-0.383c-0.068-0.107-0.142-0.342-0.142-0.535
	c0-0.496,0.185-0.877,0.634-1.141c0.447-0.273,1.027-0.447,1.829-0.447c0.421,0,0.825,0.037,1.234,0.133
	c0.413,0.09,0.79,0.129,1.143,0.254c0.349,0.135,0.667,0.24,0.938,0.363c0.348,0.164,0.582,0.26,0.741,0.379l1.257-2.238
	c-0.667-0.457-1.485-0.795-2.398-1.01c-0.9-0.246-1.858-0.359-2.949-0.359c-0.793,0-1.543,0.111-2.276,0.273
	c-0.653,0.223-1.187,0.504-1.674,0.865c-0.5,0.357-0.859,0.813-1.083,1.289c-0.246,0.553-0.38,1.109-0.38,1.809
	c0,1.057,0.38,1.861,1.136,2.578c0.761,0.633,1.869,1.076,3.34,1.238l1.343,0.221c0.796,0.068,1.418,0.27,1.785,0.48
	c0.362,0.295,0.506,0.59,0.506,0.969c0,0.498-0.229,0.863-0.762,1.184c-0.481,0.277-1.229,0.428-2.241,0.428
	c-0.49,0-0.998-0.021-1.446-0.113c-0.433-0.094-0.827-0.207-1.173-0.277c-0.345-0.146-0.648-0.324-0.914-0.438
	c-0.305-0.199-0.569-0.324-0.774-0.545l-1.389,2.133c0.504,0.371,1.031,0.713,1.501,0.891c0.563,0.229,1.101,0.402,1.55,0.551
	c0.531,0.072,1.035,0.174,1.418,0.221c0.463,0.051,0.865,0.076,1.194,0.076c0.984,0,1.793-0.125,2.541-0.305
	c0.748-0.254,1.415-0.539,1.882-0.922c0.517-0.377,0.912-0.844,1.167-1.33c0.327-0.557,0.407-1.1,0.407-1.789
	C288.068,161.837,287.665,161.011,286.856,160.331"/>
<path d="M313.786,155.396c-0.534-0.664-1.178-1.072-1.94-1.416c-0.769-0.383-1.64-0.516-2.548-0.516
	c-0.976,0-1.858,0.133-2.625,0.516c-0.815,0.344-1.493,0.752-2.115,1.416c-0.544,0.58-1.009,1.309-1.314,2.178
	c-0.31,0.881-0.513,1.781-0.513,2.785c0,1.1,0.209,2.021,0.524,2.895c0.321,0.816,0.805,1.564,1.366,2.172
	c0.574,0.582,1.322,1.064,2.112,1.389c0.843,0.318,1.781,0.521,2.738,0.521c0.975,0,1.975-0.17,2.829-0.42
	c0.938-0.258,1.81-0.756,2.619-1.436l-1.485-2.088c-0.506,0.451-1.145,0.791-1.813,1.061c-0.646,0.238-1.284,0.365-1.938,0.365
	c-0.475,0-0.944-0.061-1.384-0.221c-0.444-0.145-0.84-0.305-1.178-0.559c-0.349-0.332-0.63-0.67-0.848-1.082
	c-0.302-0.383-0.423-0.906-0.543-1.498h9.742c0.029-0.168,0.043-0.381,0.049-0.527c0.01-0.221,0.018-0.371,0.018-0.594
	c0-0.998-0.184-1.896-0.478-2.771C314.77,156.7,314.325,155.976,313.786,155.396 M305.753,159.228
	c0.092-0.412,0.19-0.865,0.392-1.273c0.161-0.396,0.424-0.74,0.689-1.008c0.278-0.355,0.611-0.539,1.018-0.723
	c0.401-0.117,0.874-0.217,1.421-0.217c0.871,0,1.617,0.271,2.243,0.881c0.543,0.523,0.907,1.336,1.09,2.34H305.753z"/>
<path d="M351.941,155.419c-0.393-0.631-1.004-1.074-1.665-1.439c-0.663-0.381-1.486-0.516-2.441-0.516
	c-0.914,0-1.806,0.133-2.618,0.516c-0.761,0.363-1.494,0.795-2.051,1.457c-0.567,0.584-1.055,1.305-1.389,2.188
	c-0.327,0.844-0.535,1.746-0.535,2.734c0,1.066,0.208,1.953,0.535,2.818c0.334,0.877,0.821,1.598,1.389,2.184
	c0.557,0.588,1.29,1.09,2.051,1.426c0.813,0.34,1.704,0.549,2.618,0.549c0.955,0,1.778-0.211,2.441-0.559
	c0.661-0.34,1.272-0.828,1.665-1.373v1.59h2.929V153.81h-2.929V155.419z M351.887,162.075c-0.234,0.498-0.472,0.926-0.825,1.303
	c-0.338,0.377-0.764,0.691-1.28,0.916c-0.45,0.18-0.998,0.303-1.585,0.303c-0.661,0-1.177-0.131-1.692-0.316
	c-0.512-0.211-0.913-0.568-1.27-0.951c-0.329-0.373-0.562-0.758-0.778-1.299c-0.146-0.547-0.267-1.045-0.267-1.672
	c0-0.545,0.12-1.123,0.267-1.59c0.217-0.539,0.449-0.998,0.778-1.381c0.356-0.385,0.758-0.67,1.27-0.867
	c0.516-0.27,1.031-0.324,1.692-0.324c0.587,0,1.135,0.049,1.585,0.313c0.517,0.178,0.942,0.463,1.28,0.83
	c0.354,0.381,0.591,0.838,0.825,1.385c0.153,0.49,0.28,1.066,0.28,1.635C352.167,161.009,352.04,161.528,351.887,162.075"/>
<path d="M299.211,164.368c-0.45,0.133-0.918,0.229-1.389,0.229c-0.271,0-0.526-0.047-0.836-0.145
	c-0.229-0.045-0.411-0.229-0.635-0.383c-0.15-0.236-0.335-0.463-0.467-0.762c-0.054-0.352-0.118-0.734-0.118-1.131v-5.756h4.56
	v-2.611h-4.56v-3.967h-2.926v3.967h-2.606v2.611h2.606v5.787c0,1.764,0.398,3.004,1.25,3.857c0.852,0.848,2.019,1.27,3.511,1.27
	c0.854,0,1.602-0.156,2.252-0.389c0.454-0.205,0.854-0.361,1.216-0.627l-0.999-2.354
	C299.809,164.069,299.538,164.22,299.211,164.368"/>
<path d="M325.146,153.464c-0.819,0-1.548,0.133-2.175,0.453c-0.637,0.281-1.215,0.975-1.671,1.586v-1.693h-2.607v13.184h2.646
	v-7.275c0-0.518,0.083-1.039,0.282-1.5c0.105-0.451,0.369-0.822,0.629-1.111c0.246-0.289,0.57-0.518,0.959-0.668
	c0.382-0.195,0.821-0.215,1.289-0.215c0.353,0,0.729,0,1.131,0.072c0.173,0.055,0.407,0.121,0.542,0.193l0.864-2.781
	c-0.192-0.09-0.475-0.111-0.681-0.133C325.995,153.509,325.603,153.464,325.146,153.464"/>
<path d="M365.084,153.464c-0.792,0-1.54,0.133-2.175,0.453c-0.634,0.281-1.215,0.975-1.609,1.586v-1.693h-2.631v13.184h2.631v-7.275
	c0-0.518,0.066-1.039,0.26-1.5c0.108-0.451,0.37-0.822,0.627-1.111c0.247-0.289,0.609-0.518,0.971-0.668
	c0.387-0.195,0.81-0.215,1.276-0.215c0.353,0,0.729,0,1.129,0.072c0.226,0.055,0.411,0.121,0.587,0.193l0.829-2.781
	c-0.2-0.09-0.442-0.111-0.688-0.133C365.93,153.509,365.54,153.464,365.084,153.464"/>
<path d="M378.505,148.425v6.994c-0.4-0.631-1.012-1.074-1.672-1.439c-0.665-0.381-1.488-0.516-2.455-0.516
	c-0.902,0-1.794,0.133-2.604,0.516c-0.75,0.363-1.495,0.795-2.054,1.457c-0.579,0.584-1.053,1.305-1.388,2.188
	c-0.327,0.844-0.535,1.746-0.535,2.734c0,1.066,0.208,1.953,0.535,2.818c0.335,0.877,0.809,1.598,1.388,2.184
	c0.559,0.588,1.304,1.09,2.054,1.426c0.81,0.34,1.701,0.549,2.604,0.549c0.967,0,1.79-0.211,2.455-0.559
	c0.66-0.34,1.271-0.828,1.672-1.373v1.59h2.921v-18.568H378.505z M378.442,162.075c-0.235,0.498-0.473,0.926-0.824,1.303
	c-0.337,0.377-0.762,0.691-1.281,0.916c-0.463,0.18-0.999,0.303-1.572,0.303c-0.674,0-1.19-0.131-1.705-0.316
	c-0.513-0.211-0.926-0.568-1.27-0.951c-0.329-0.373-0.562-0.758-0.766-1.299c-0.159-0.547-0.28-1.045-0.28-1.672
	c0-0.545,0.121-1.123,0.28-1.59c0.204-0.539,0.437-0.998,0.766-1.381c0.344-0.385,0.757-0.67,1.27-0.867
	c0.515-0.27,1.031-0.324,1.705-0.324c0.573,0,1.109,0.049,1.572,0.313c0.52,0.178,0.944,0.463,1.281,0.83
	c0.352,0.381,0.589,0.838,0.824,1.385c0.154,0.49,0.281,1.066,0.281,1.635C378.724,161.009,378.597,161.528,378.442,162.075"/>
<path d="M332.051,157.337c0.368-0.365,0.814-0.678,1.264-0.844c0.532-0.254,1.056-0.297,1.667-0.297c0.629,0,1.246,0.041,1.78,0.297
	c0.582,0.16,0.98,0.479,1.38,0.842l1.443-2.311c-0.554-0.424-1.113-0.752-1.81-1.045c-0.81-0.381-1.794-0.516-2.794-0.516
	s-1.974,0.135-2.855,0.516c-0.823,0.365-1.571,0.826-2.244,1.496c-0.608,0.594-1.13,1.328-1.486,2.184
	c-0.351,0.809-0.485,1.74-0.485,2.699c0,1.041,0.135,1.912,0.485,2.781c0.356,0.861,0.878,1.592,1.486,2.184
	c0.673,0.625,1.421,1.098,2.244,1.443c0.882,0.354,1.855,0.568,2.855,0.568s1.984-0.215,2.794-0.568
	c0.696-0.232,1.256-0.57,1.81-0.988l-1.443-2.32c-0.399,0.352-0.798,0.611-1.38,0.848c-0.534,0.174-1.151,0.291-1.78,0.291
	c-0.611,0-1.135-0.117-1.667-0.291c-0.449-0.236-0.896-0.521-1.264-0.889c-0.367-0.373-0.673-0.836-0.898-1.299
	c-0.167-0.547-0.299-1.084-0.299-1.76c0-0.596,0.132-1.145,0.299-1.672C331.378,158.132,331.684,157.72,332.051,157.337"/>
<path d="M387.481,165.048c0.164,0,0.361,0.053,0.513,0.135c0.201,0.018,0.298,0.125,0.454,0.268
	c0.141,0.115,0.186,0.242,0.275,0.436c0.092,0.123,0.127,0.336,0.127,0.479c0,0.223-0.035,0.352-0.127,0.551
	c-0.09,0.146-0.135,0.291-0.275,0.439c-0.156,0.09-0.253,0.188-0.454,0.277c-0.151,0.086-0.349,0.123-0.513,0.123
	c-0.229,0-0.387-0.037-0.569-0.123c-0.179-0.09-0.304-0.188-0.457-0.277c-0.108-0.148-0.186-0.293-0.269-0.439
	c-0.089-0.199-0.137-0.328-0.137-0.551c0-0.143,0.048-0.355,0.137-0.479c0.083-0.193,0.16-0.32,0.269-0.436
	c0.153-0.143,0.278-0.25,0.457-0.268C387.095,165.101,387.253,165.048,387.481,165.048 M387.481,167.38
	c0.097,0,0.25-0.029,0.361-0.09c0.092-0.066,0.228-0.15,0.32-0.229c0.066-0.051,0.115-0.17,0.174-0.314
	c0.055-0.064,0.094-0.215,0.094-0.383c0-0.082-0.039-0.234-0.094-0.381c-0.059-0.063-0.107-0.189-0.174-0.293
	c-0.093-0.111-0.229-0.125-0.32-0.172c-0.111-0.061-0.265-0.096-0.361-0.096c-0.151,0-0.308,0.035-0.387,0.096
	c-0.132,0.047-0.252,0.061-0.359,0.172c-0.023,0.104-0.108,0.23-0.164,0.293c-0.072,0.146-0.096,0.299-0.096,0.381
	c0,0.168,0.023,0.318,0.096,0.383c0.056,0.145,0.141,0.264,0.164,0.314c0.107,0.078,0.228,0.162,0.359,0.229
	C387.174,167.351,387.33,167.38,387.481,167.38 M387.511,165.794c0.196,0,0.332,0.055,0.373,0.141
	c0.107,0.014,0.155,0.127,0.155,0.275c0,0.104-0.042,0.127-0.115,0.203c-0.068,0.076-0.094,0.129-0.231,0.15l0.37,0.439h-0.417
	l-0.316-0.422h-0.053v0.422h-0.323v-1.209H387.511z M387.276,166.075v0.238h0.228c0.061,0,0.116,0,0.142-0.002
	c0.044-0.02,0.055-0.061,0.055-0.102c0-0.045-0.011-0.082-0.055-0.109c-0.025-0.018-0.081-0.025-0.142-0.025H387.276z"/>
<path fill="#ED2026" d="M290.054,92.206c0-15.758,7.351-29.815,18.882-38.938c-8.517-6.7-19.17-10.693-30.82-10.693
	c-27.452,0-49.634,22.226-49.634,49.631c0,27.41,22.182,49.672,49.634,49.672c11.65,0,22.304-3.99,30.82-10.721
	C297.404,122.067,290.054,108.003,290.054,92.206"/>
<path fill="#F26A21" d="M290.054,92.206c0,15.797,7.351,29.861,18.882,38.951c11.456-9.09,18.81-23.154,18.81-38.951
	c0-15.758-7.354-29.815-18.81-38.938C297.404,62.391,290.054,76.448,290.054,92.206"/>
<path fill="#F99F1D" d="M385.985,119.093v-1.447h-0.6v-0.404h1.645v0.404h-0.636v1.447H385.985z M389.086,119.093v-1.328
	l-0.424,1.111h-0.433l-0.393-1.109v1.326h-0.447v-1.852h0.594l0.474,1.199l0.479-1.199h0.596v1.852H389.086z"/>
<path fill="#F99F1D" d="M339.681,42.575c-11.646,0-22.299,3.993-30.745,10.693c11.456,9.123,18.81,23.18,18.81,38.938
	c0,15.797-7.354,29.861-18.81,38.951c8.446,6.73,19.099,10.721,30.745,10.721c27.451,0,49.658-22.262,49.658-49.672
	C389.339,64.801,367.132,42.575,339.681,42.575"/>
</svg>
