<?xml version="1.0" encoding="utf-8"?>
<!-- Generator: Adobe Illustrator 16.0.0, SVG Export Plug-In . SVG Version: 6.00 Build 0)  -->
<!DOCTYPE svg PUBLIC "-//W3C//DTD SVG 1.1//EN" "http://www.w3.org/Graphics/SVG/1.1/DTD/svg11.dtd">
<svg version="1.1" xmlns="http://www.w3.org/2000/svg" xmlns:xlink="http://www.w3.org/1999/xlink" x="0px" y="0px" width="400px"
	 height="200px" viewBox="0 0 400 200" enable-background="new 0 0 400 200" xml:space="preserve">
<g id="Layer_1">
</g>
<g id="Layer_2">
	<g>
		<polygon display="none" fill="#FFFFFF" points="207.001,21.899 407,21.899 407,188.389 207.001,188.389 		"/>
		<path fill="#E13361" d="M250.509,63.073l88.856-23.249l15.59,57.67l34.131-8.824l-32.741,42.932l-0.337,0.094
			c0,0-2.982,0.814-3.929,0.268c-0.948-0.545,1.079-4.33,2.161-6.902c1.09-2.582,3.116-8.807,4.877-12.336
			c1.767-3.52,4.34-6.361,5.019-6.635c0.671-0.268,1.082-2.707,0.813-3.793c-0.277-1.085,0-2.305-1.09-2.305
			c-1.079,0-1.892,3.252-3.384,5.151c-1.492,1.891-4.877,8.314-7.718,14.188c-2.85,5.875-8.438,12.619-11.208,15.381
			c-2.984,2.361-0.583-2.201-0.314-3.561c0.278-1.355,2.039-5.145,2.039-5.145s2.438-2.715-0.682-1.758
			c-3.116,0.945-5.955,5.545-5.955,5.545s-7.729,9.621-10.433,11.523c-2.707,1.893-2.037-1.09-1.494-4.064
			c0.547-2.984,3.932-6.504,3.932-6.504l1.357-0.545c0,0-0.813,2.984-0.144,2.842c0.678-0.135,1.492-1.35,1.626-2.438
			c0.143-1.082,0-5.547-0.813-5.012c-0.813,0.543-5.145,4.475-6.502,6.1c-1.349,1.627-6.225,7.717-7.985,10.568
			c-1.769,2.838-0.543-1.492-0.543-1.492s0.68-2.439,0.813-3.52c0.131-1.092-1.359-0.545-1.359-0.545l-2.025,2.027
			c0,0-0.413,0.41-0.413,2.037c0,1.625-2.025,3.93-4.063,5.143c-2.031,1.225-1.213-1.078-1.213-1.078s0.678-2.85,2.703-6.236
			c2.038-3.385,4.198-3.652,5.424-4.199c1.214-0.543,0.678-1.355,0.267-2.025c-0.401-0.68-1.745-0.191-2.17,0.135
			c-0.929,0.727-16.005,13.332-16.657,15.576c-0.654,2.242,1.486,0.545,1.486,0.545l5.962-6.488l0.272-0.293l-0.139,1.492
			c0,0-1.76,3.119-1.354,5.289c0.446,1.746,1.762,1.363,2.714,1.305c0.945-0.141,2.839-2.797,4.063-3.744
			c1.214-0.953,1.356,0.137,1.757,0.947c0.413,0.814,2.173-0.275,2.173-0.275s4.064-5.547,5.011-6.773
			c0.945-1.213,2.17-1.213,2.17-1.213s-0.543,1.625,0.813,3.785c1.348,2.174,3.786,0.547,5.277-0.398
			c1.494-0.949,6.236-6.914,7.315-8.406c1.081-1.482,2.571-1.76,2.571-1.76s-0.811,4.742-0.534,5.967
			c0.27,1.213,2.297,1.482,4.734-0.814c2.438-2.303,7.557-9.818,7.557-9.818s-1.323,3.717-0.912,6.568
			c0.401,2.838,2.829,2.018,3.884,1.693c0.845-0.559,1.804-1.07,2.598-1.488l-27.646,36.252l-37.752-16.525
			c1.213-3.619,5.397-16.092,5.555-16.551c4.15-1.305,8.181-2.572,8.181-2.572c0.397-0.969,0.843-2.348,1.74-3.961
			c0.896-1.619-1.259-1.256-1.259-1.256s-3.671,2.701-5.287,3.242c-2.232,1.156-1.355-1.27-1.355-1.27s3.23-6.646,4.31-9.336
			c1.073-2.695,4.13-2.695,6.643-3.773c2.519-1.074,19.576-6.463,22.447-7.539c2.867-1.08,2.336-5.391,2.336-5.391
			s-3.06,1.619-5.387,2.332c-2.34,0.721-18.144,6.822-19.935,7.727c-1.795,0.893-0.896-0.723-0.896-1.977
			c0-1.256-0.898-0.723-0.898-0.723s-2.157,1.084-3.592,1.445c-1.436,0.35-2.334,2.867-2.334,2.867s-14.188,6.463-17.238,10.055
			c-3.055,3.596,1.796,1.977,1.796,1.977s13.646-8.076,12.569-6.107c-1.08,1.975-5.746,12.934-5.746,12.934s-4.49,3.051-6.105,4.305
			c-1.615,1.264-0.897,3.771-0.897,3.771s6.462-5.209,5.744-3.592c-0.6,1.348-2.694,9.426-3.372,12.084l-54.007-23.652l32.954-8.818
			L250.509,63.073L250.509,63.073z M318.718,128.021c0,0,3.629-4.316,4.141-5.703c0.518-1.377,2.764-1.549,2.595,0
			c-0.168,1.563-3.8,4.674-3.8,4.674s-1.729,2.072-2.591,2.072C318.197,129.063,318.718,128.021,318.718,128.021L318.718,128.021z
			 M343.866,120.836c0,0-1.14,0.164-0.976-1.789c0.162-1.951,0.649-1.625,1.624-2.438c0.976-0.814,1.791-1.951,1.791-0.326
			c0,1.627-0.163,2.439-0.976,3.414C344.516,120.674,343.866,120.836,343.866,120.836L343.866,120.836z"/>
		
			<path fill="#FFFFFF" stroke="#FFFFFF" stroke-width="11.5681" stroke-linecap="round" stroke-linejoin="round" stroke-miterlimit="2.6131" d="
			M224.915,93.234l19.86-5.15c3.61-0.937,6.644-1.377,9.099-1.329c2.584-0.04,4.73,0.35,6.449,1.176
			c1.717,0.824,3.009,2.094,3.875,3.812c0.357,0.712,0.645,1.537,0.852,2.467c1.379,6.875-3.533,11.765-14.746,14.669l-6.967,1.811
			l2.246,9.494l-13.585,3.529L224.915,93.234L224.915,93.234z M304.168,73.606h0.114c0.44-0.303,0.896-0.601,1.373-0.883
			c2.499-1.502,5.49-2.705,8.985-3.61c1.879-0.488,3.534-0.821,4.963-0.998c1.439-0.173,2.999-0.214,4.7-0.116
			c2.935,0.132,5.483,0.81,7.653,2.022c2.177,1.214,3.817,2.918,4.921,5.111l0.085,0.158l-7.347,1.907v3.447l8.593-2.225
			l3.856,16.837l-8.639,2.237l-1.282-2.802c-0.714,0.965-1.561,1.845-2.528,2.642v0.055h-0.074c-2.294,1.874-5.267,3.289-8.94,4.237
			c-5.291,1.373-9.952,1.404-13.979,0.087c-4.029-1.316-6.883-3.637-8.557-6.966l-0.844-1.801l-0.373-1.652
			c-1.11-4.791-0.188-9.196,2.778-13.223c1.205-1.641,2.716-3.103,4.542-4.384L304.168,73.606L304.168,73.606z M240.187,96.806
			l1.467,6.788l5.875-1.521c1.688-0.439,2.953-1.18,3.796-2.219s0.987-2.116,0.427-3.223c-0.838-1.667-3.35-1.956-7.535-0.874
			L240.187,96.806L240.187,96.806z M268.785,81.855l13.876-3.594l21.941,26.622l-13.531,3.51l-2.609-3.625l-13.588,3.527
			l-0.56,4.439l-13.241,3.438L268.785,81.855L268.785,81.855z M276.024,101.27l8.58-2.227l-6.823-9.791L276.024,101.27
			L276.024,101.27z M358.461,57.75c6.102-1.585,11.213-1.654,15.317-0.207c1.952,0.686,3.724,1.661,5.321,2.924
			c0.738,0.612,1.405,1.285,1.983,2.015c0.593,0.729,1.117,1.568,1.601,2.522l0.76,1.503l0.384,1.289
			c0.775,2.822,0.638,5.708-0.415,8.671c-1.051,2.958-3.094,5.64-6.132,8.045c-3.052,2.4-6.851,4.195-11.419,5.381
			c-6.18,1.602-11.343,1.664-15.5,0.184c-4.147-1.477-7.061-3.881-8.742-7.21l-0.39-1.155l-0.485-1.352l-0.399-1.192
			c-0.591-2.987-0.393-5.81,0.612-8.474c1.001-2.665,3.021-5.189,6.048-7.575C350.029,60.732,353.853,58.943,358.461,57.75
			L358.461,57.75z M360.076,65.219c-5.913,1.532-7.621,5.992-5.112,13.382c1.854,3.67,4.906,4.958,9.17,3.851
			c3.377-0.875,5.42-2.668,6.142-5.381c0.713-2.708,0.413-5.375-0.904-7.987c-0.859-1.718-2.071-2.936-3.623-3.652
			C364.187,64.71,362.3,64.641,360.076,65.219L360.076,65.219z"/>
		<path fill="#516286" stroke="#516286" stroke-width="2.0001" stroke-miterlimit="2.6131" d="M225.372,93.234l19.867-5.15
			c3.605-0.937,6.639-1.377,9.096-1.329c2.58-0.04,4.733,0.35,6.449,1.176c1.716,0.824,3.008,2.094,3.874,3.812
			c0.356,0.712,0.644,1.537,0.851,2.467c1.378,6.875-3.534,11.765-14.741,14.669l-6.972,1.811l2.252,9.494l-13.59,3.529
			L225.372,93.234L225.372,93.234z M240.646,96.806l1.468,6.788l5.875-1.521c1.688-0.439,2.956-1.18,3.796-2.219
			c0.845-1.039,0.984-2.116,0.428-3.223c-0.841-1.667-3.352-1.956-7.533-0.874L240.646,96.806L240.646,96.806z M269.246,81.855
			l13.88-3.594l21.938,26.622l-13.533,3.51l-2.607-3.625l-13.586,3.527l-0.563,4.439l-13.242,3.438L269.246,81.855L269.246,81.855z
			 M276.483,101.27l8.582-2.227l-6.819-9.791L276.483,101.27L276.483,101.27z M321.632,89.828l-1.558-6.587l18.593-4.819
			l3.86,16.836l-8.634,2.237l-1.287-2.802c-2.437,3.257-6.283,5.572-11.543,6.935c-5.298,1.373-9.954,1.404-13.984,0.087
			c-4.024-1.317-6.877-3.638-8.557-6.967l-0.838-1.8l-0.379-1.652c-1.109-4.79-0.183-9.196,2.778-13.223
			c1.519-2.069,3.532-3.852,6.03-5.35c2.496-1.501,5.499-2.705,8.986-3.61c1.884-0.489,3.533-0.821,4.971-0.998
			c1.429-0.173,2.989-0.215,4.692-0.116c2.934,0.133,5.483,0.81,7.662,2.023c2.166,1.214,3.808,2.918,4.91,5.111l0.086,0.158
			l-12.902,3.345c-1.635-2.296-4.27-2.968-7.916-2.023c-5.987,1.553-7.632,6.087-4.937,13.605c1.772,3.512,5.017,4.657,9.739,3.432
			c1.457-0.377,2.831-1.081,4.108-2.119c1.279-1.032,1.963-2.115,2.053-3.242L321.632,89.828L321.632,89.828z M358.922,57.75
			c6.1-1.585,11.211-1.654,15.316-0.207c1.952,0.686,3.733,1.661,5.321,2.924c0.738,0.612,1.401,1.285,1.988,2.015
			c0.585,0.729,1.119,1.568,1.6,2.522l0.755,1.503l0.392,1.289c0.768,2.822,0.629,5.708-0.422,8.671
			c-1.043,2.958-3.093,5.64-6.133,8.045c-3.04,2.4-6.852,4.195-11.417,5.381c-6.181,1.602-11.344,1.664-15.502,0.184
			c-4.146-1.477-7.06-3.881-8.741-7.21l-0.38-1.155l-0.487-1.352l-0.411-1.192c-0.586-2.987-0.391-5.81,0.612-8.474
			c1.005-2.665,3.024-5.189,6.051-7.575C350.491,60.732,354.313,58.943,358.922,57.75L358.922,57.75z M360.535,65.219
			c-5.914,1.532-7.613,5.992-5.111,13.382c1.853,3.67,4.907,4.958,9.17,3.851c3.375-0.875,5.42-2.668,6.142-5.381
			c0.722-2.708,0.413-5.375-0.895-7.987c-0.871-1.718-2.085-2.936-3.635-3.652C364.646,64.71,362.758,64.641,360.535,65.219
			L360.535,65.219z"/>
	</g>
</g>
</svg>
